<svg width="30" height="30" viewBox="0 0 30 30" fill="none" xmlns="http://www.w3.org/2000/svg">
<path d="M27.175 9.31252L23.425 11.45C23.1462 11.6051 22.9136 11.8315 22.751 12.1061C22.5885 12.3806 22.5019 12.6935 22.5 13.0125V17.6125C22.5019 17.9316 22.5885 18.2444 22.751 18.519C22.9136 18.7935 23.1462 19.0199 23.425 19.175L27.175 21.3125C27.4559 21.4778 27.775 21.567 28.1009 21.5713C28.4267 21.5756 28.7481 21.4949 29.0333 21.3372C29.3184 21.1795 29.5576 20.9501 29.7271 20.6718C29.8966 20.3935 29.9907 20.0758 30 19.75V10.875C29.9907 10.5493 29.8966 10.2316 29.7271 9.95323C29.5576 9.6749 29.3184 9.44557 29.0333 9.28783C28.7481 9.1301 28.4267 9.04943 28.1009 9.05375C27.775 9.05808 27.4559 9.14727 27.175 9.31252Z" fill="#17234D"/>
<rect x="2.5" y="8.125" width="18.75" height="15" rx="3" fill="#17234D"/>
</svg>
