<svg width="30" height="30" viewBox="0 0 30 30" fill="none" xmlns="http://www.w3.org/2000/svg">
<g opacity="0.5" clip-path="url(#clip0)">
<path d="M3.9625 8.03756C3.90974 8.00557 3.84921 7.98865 3.7875 7.98865C3.72579 7.98865 3.66526 8.00557 3.6125 8.03756C3.29091 8.18047 3.01603 8.41101 2.81929 8.70279C2.62255 8.99458 2.51191 9.33585 2.5 9.68756V20.9376C2.5 21.4348 2.69754 21.9118 3.04917 22.2634C3.40081 22.615 3.87772 22.8126 4.375 22.8126H17.975C18.036 22.8128 18.0957 22.7951 18.1468 22.7618C18.1979 22.7285 18.2381 22.681 18.2625 22.6251C18.2959 22.5728 18.3136 22.5121 18.3136 22.4501C18.3136 22.388 18.2959 22.3273 18.2625 22.2751L3.9625 8.03756Z" fill="#17234D"/>
<path d="M27.175 9.31252L23.425 11.45C23.1462 11.6051 22.9136 11.8315 22.751 12.1061C22.5885 12.3806 22.5019 12.6935 22.5 13.0125V17.6125C22.5019 17.9316 22.5885 18.2444 22.751 18.519C22.9136 18.7935 23.1462 19.0199 23.425 19.175L27.175 21.3125C27.4559 21.4778 27.775 21.567 28.1009 21.5713C28.4267 21.5756 28.7481 21.4949 29.0333 21.3372C29.3184 21.1795 29.5576 20.9501 29.7271 20.6718C29.8966 20.3935 29.9907 20.0758 30 19.75V10.875C29.9907 10.5493 29.8966 10.2316 29.7271 9.95323C29.5576 9.6749 29.3184 9.44557 29.0333 9.28783C28.7481 9.1301 28.4267 9.04943 28.1009 9.05375C27.775 9.05808 27.4559 9.14727 27.175 9.31252Z" fill="#17234D"/>
<path d="M21.3375 19.575C21.2835 19.5122 21.2526 19.4328 21.25 19.35V9.68752C21.25 9.19024 21.0525 8.71332 20.7009 8.36169C20.3492 8.01006 19.8723 7.81252 19.375 7.81252H9.71255C9.62975 7.80992 9.55035 7.77904 9.48755 7.72502L2.13755 0.362519C1.9318 0.156577 1.66063 0.0289006 1.37082 0.00151655C1.08101 -0.0258675 0.790721 0.0487582 0.550046 0.212519L0.362546 0.362519C0.245385 0.478723 0.152392 0.616975 0.0889315 0.769299C0.0254707 0.921623 -0.00720215 1.085 -0.00720215 1.25002C-0.00720215 1.41503 0.0254707 1.57842 0.0889315 1.73074C0.152392 1.88306 0.245385 2.02132 0.362546 2.13752L27.8625 29.6375C27.9791 29.7541 28.1175 29.8465 28.2697 29.9096C28.422 29.9727 28.5852 30.0051 28.75 30.0051C28.9149 30.0051 29.0781 29.9727 29.2304 29.9096C29.3826 29.8465 29.521 29.7541 29.6375 29.6375C29.7541 29.521 29.8465 29.3826 29.9096 29.2303C29.9727 29.0781 30.0052 28.9148 30.0052 28.75C30.0052 28.5852 29.9727 28.422 29.9096 28.2697C29.8465 28.1174 29.7541 27.9791 29.6375 27.8625L21.3375 19.575Z" fill="#17234D"/>
</g>
<defs>
<clipPath id="clip0">
<rect width="30" height="30" fill="white"/>
</clipPath>
</defs>
</svg>
