<svg width="25" height="27" viewBox="0 0 25 27" fill="none" xmlns="http://www.w3.org/2000/svg">
<path opacity="0.5" fill-rule="evenodd" clip-rule="evenodd" d="M1.77189 0.315263C1.36654 -0.105061 0.709346 -0.105061 0.303999 0.315263C-0.101349 0.735586 -0.101349 1.41707 0.303999 1.83739L23.2281 25.6085C23.6334 26.0288 24.2906 26.0288 24.696 25.6085C25.1013 25.1881 25.1013 24.5067 24.696 24.0863L20.3287 19.5577C21.5378 17.7721 22.1949 15.637 22.1976 13.4386V12.147C22.1976 11.7188 22.0336 11.3082 21.7416 11.0054C21.4496 10.7027 21.0536 10.5326 20.6407 10.5326C20.2278 10.5326 19.8318 10.7027 19.5398 11.0054C19.2478 11.3082 19.0838 11.7188 19.0838 12.147V13.4386C19.0838 14.7832 18.7321 16.0903 18.0816 17.2275L16.2581 15.3367C16.6779 14.5674 16.9041 13.6921 16.9041 12.7927V6.33485C16.9041 4.96467 16.3792 3.65061 15.4448 2.68174C14.5105 1.71288 13.2432 1.16858 11.9219 1.16858C10.6005 1.16858 9.33328 1.71288 8.39894 2.68174C7.60737 3.50256 7.10967 4.57114 6.97605 5.7117L1.77189 0.315263ZM6.93969 12.7927V10.8708L13.5141 17.688C13.0058 17.8658 12.4685 17.959 11.9219 17.959C10.6005 17.959 9.33328 17.4147 8.39894 16.4458C7.4646 15.4769 6.93969 14.1629 6.93969 12.7927ZM11.9219 20.8651C13.2186 20.8651 14.4791 20.5005 15.5758 19.8259L17.8236 22.1568C16.5384 23.0936 15.0537 23.7199 13.4788 23.9726V25.3856C13.4788 25.8138 13.3148 26.2244 13.0228 26.5272C12.7308 26.83 12.3348 27.0001 11.9219 27.0001C11.5089 27.0001 11.1129 26.83 10.8209 26.5272C10.529 26.2244 10.3649 25.8138 10.3649 25.3856V23.9726C7.93903 23.5833 5.72718 22.3078 4.12843 20.3762C2.52968 18.4446 1.64929 15.9841 1.64609 13.4386V12.147C1.64609 11.7188 1.81012 11.3082 2.10211 11.0054C2.39409 10.7027 2.7901 10.5326 3.20302 10.5326C3.61595 10.5326 4.01196 10.7027 4.30394 11.0054C4.59593 11.3082 4.75996 11.7188 4.75996 12.147V13.4386C4.75996 15.4082 5.51451 17.2972 6.85763 18.6899C8.20075 20.0827 10.0224 20.8651 11.9219 20.8651Z" fill="#17234D"/>
</svg>
