<svg width="22" height="26" viewBox="0 0 22 26" fill="none" xmlns="http://www.w3.org/2000/svg">
<path d="M19.825 9.42499C19.394 9.42499 18.9807 9.59619 18.6759 9.90094C18.3712 10.2057 18.2 10.619 18.2 11.05V12.35C18.2 14.3325 17.4124 16.2338 16.0106 17.6356C14.6088 19.0374 12.7075 19.825 10.725 19.825C8.74249 19.825 6.8412 19.0374 5.43937 17.6356C4.03754 16.2338 3.24999 14.3325 3.24999 12.35V11.05C3.24999 10.619 3.07879 10.2057 2.77404 9.90094C2.4693 9.59619 2.05597 9.42499 1.625 9.42499C1.19402 9.42499 0.780697 9.59619 0.475951 9.90094C0.171205 10.2057 0 10.619 0 11.05V12.35C0.00333685 14.9121 0.922215 17.3886 2.59086 19.3328C4.2595 21.277 6.56804 22.5609 9.09998 22.9528V24.375C9.09998 24.8059 9.27119 25.2193 9.57593 25.524C9.88068 25.8288 10.294 26 10.725 26C11.156 26 11.5693 25.8288 11.874 25.524C12.1788 25.2193 12.35 24.8059 12.35 24.375V22.9528C14.8819 22.5609 17.1905 21.277 18.8591 19.3328C20.5277 17.3886 21.4466 14.9121 21.45 12.35V11.05C21.45 10.619 21.2788 10.2057 20.974 9.90094C20.6693 9.59619 20.2559 9.42499 19.825 9.42499Z" fill="#17234D"/>
<path d="M10.725 16.9C12.1041 16.9 13.4268 16.3521 14.402 15.3769C15.3772 14.4017 15.925 13.0791 15.925 11.7V5.19999C15.925 3.82087 15.3772 2.49823 14.402 1.52304C13.4268 0.547855 12.1041 0 10.725 0C9.34589 0 8.02325 0.547855 7.04807 1.52304C6.07288 2.49823 5.52502 3.82087 5.52502 5.19999V11.7C5.52502 13.0791 6.07288 14.4017 7.04807 15.3769C8.02325 16.3521 9.34589 16.9 10.725 16.9Z" fill="#17234D"/>
</svg>
